<svg version="1.1" id="Layer_1" xmlns="http://www.w3.org/2000/svg" xmlns:xlink="http://www.w3.org/1999/xlink" x="0px" y="0px"
	 width="100%" viewBox="0 0 800 300" enable-background="new 0 0 800 300" xml:space="preserve">
<path fill="#FFFFFF" opacity="1.000000" stroke="none" 
	d="
M606.000000,301.000000 
	C404.045746,301.000000 202.591522,301.000000 1.068639,301.000000 
	C1.068639,201.068512 1.068639,101.136955 1.068639,1.102703 
	C267.666656,1.102703 534.333313,1.102703 800.977661,1.102703 
	C800.977661,101.075203 800.977661,201.037613 800.977661,301.000000 
	C736.136902,301.000000 671.318420,301.000000 606.000000,301.000000 
M650.223206,109.288193 
	C649.921326,107.470665 649.619446,105.653137 649.532410,102.939903 
	C649.532410,92.372154 649.532410,81.804405 649.532410,70.858299 
	C656.099121,70.858299 662.560669,70.858299 669.549500,70.930496 
	C669.652466,70.629486 669.755371,70.328476 670.023560,69.107170 
	C669.968445,64.733521 669.913391,60.359871 669.970032,55.111732 
	C668.725159,54.741669 667.488464,54.086155 666.234070,54.050476 
	C660.508240,53.887608 654.777527,53.898743 649.038025,52.931168 
	C648.978149,47.613300 648.918213,42.295429 648.930420,36.450233 
	C648.629395,36.347389 648.328308,36.244545 647.101379,35.976357 
	C641.726868,36.031471 636.352356,36.086586 630.450500,36.069492 
	C630.347534,36.370506 630.244568,36.671516 629.976379,37.897663 
	C629.967957,43.214359 629.959534,48.531052 629.034424,53.990623 
	C624.765564,53.990623 620.496704,53.990623 616.274780,53.990623 
	C616.274780,59.956543 616.274780,65.360573 616.274780,71.154121 
	C621.012512,71.154121 625.481689,71.154121 629.957214,72.072067 
	C629.885681,85.902199 629.684692,99.733383 629.796875,113.562019 
	C629.853516,120.541946 631.123596,127.650696 637.301819,131.771408 
	C647.469421,138.552948 658.770020,136.327301 669.647217,135.110672 
	C669.647217,128.896912 669.647217,123.487320 669.647217,118.088089 
	C661.990784,117.573730 653.017578,120.948608 650.223206,109.288193 
M624.017944,260.883118 
	C629.290039,261.074677 634.562195,261.266693 639.835754,261.398071 
	C639.841431,261.398193 639.869690,260.490356 640.066833,259.113037 
	C640.058594,256.080902 640.050354,253.048782 640.263672,249.235001 
	C640.885437,237.170609 641.507202,225.106201 642.670288,212.630859 
	C645.850830,205.720749 650.708496,202.992722 658.204224,203.907043 
	C664.101318,204.626389 668.106323,208.765274 668.853760,216.522736 
	C669.666626,224.959503 669.651794,233.482590 669.832886,241.971542 
	C669.973633,248.567932 669.861084,255.169724 669.861084,261.660278 
	C675.975403,261.660278 681.376648,261.660278 687.055054,261.660278 
	C687.055054,245.208191 687.294495,229.058182 686.965393,212.919769 
	C686.767517,203.215546 683.174927,194.678177 673.634155,190.742508 
	C663.331543,186.492538 653.152100,186.775406 644.323547,194.913208 
	C643.338135,195.821548 642.002686,196.350235 640.821228,196.221375 
	C640.512329,194.253174 640.203430,192.284973 639.843384,189.990723 
	C635.200134,189.990723 630.562195,189.916061 625.932617,190.079514 
	C625.311462,190.101440 624.732727,191.325165 623.978333,192.919144 
	C624.030334,215.281982 624.082336,237.644821 624.017944,260.883118 
M385.988068,129.790421 
	C386.450531,134.053238 388.732422,135.460678 393.013672,135.108978 
	C397.960693,134.702591 402.975464,134.873520 407.946777,135.100449 
	C411.075684,135.243271 412.556030,133.965240 413.309814,130.420578 
	C422.030090,106.309189 430.750366,82.197800 439.919922,57.526314 
	C440.222260,56.472858 440.524597,55.419403 440.933319,53.995216 
	C435.483124,53.995216 430.352203,54.298824 425.274933,53.907021 
	C420.510956,53.539391 418.100586,55.157524 417.783661,60.670856 
	C411.976807,77.268944 406.169952,93.867027 400.013031,111.465775 
	C393.185242,91.476837 386.769440,72.694061 380.444427,54.177063 
	C372.858398,54.177063 366.062378,54.177063 358.358734,54.177063 
	C359.535156,57.828629 360.449158,61.113678 361.641541,64.294388 
	C369.731720,85.875534 377.880615,107.434647 385.988068,129.790421 
M604.912903,78.242035 
	C604.634766,77.112167 604.313110,75.991005 604.085022,74.851135 
	C599.607361,52.478600 573.673035,47.752888 560.562439,57.421104 
	C557.613647,59.595612 555.021667,62.253933 552.250305,64.702904 
	C551.807922,61.052387 551.394592,57.641335 550.984070,54.253265 
	C544.828613,54.253265 539.072205,54.253265 533.226501,54.253265 
	C533.226501,81.210396 533.226501,107.931068 533.226501,134.770920 
	C539.524963,134.770920 545.592102,134.770920 552.430908,134.770920 
	C552.430908,120.761742 552.122131,106.967934 552.586060,93.200165 
	C552.766296,87.849747 554.097046,82.337135 555.972900,77.296310 
	C558.250793,71.175621 563.930298,70.555557 569.752136,70.783310 
	C575.232361,70.997688 580.182495,72.035736 582.052551,78.006241 
	C583.281006,81.928413 583.982971,86.015495 584.728943,90.945496 
	C584.728943,105.505722 584.728943,120.065948 584.728943,134.635101 
	C591.930725,134.635101 598.436157,134.635101 604.818481,134.635101 
	C604.818481,115.851540 604.818481,97.432442 604.912903,78.242035 
M350.087067,26.977207 
	C328.720306,27.032131 307.353516,27.087055 285.112213,27.029837 
	C284.741821,28.463875 284.050690,29.897326 284.048065,31.332033 
	C283.987213,64.599510 283.997772,97.867119 284.013702,131.134705 
	C284.014313,132.391632 284.200958,133.648468 284.285736,134.714935 
	C307.719849,134.714935 330.767822,134.714935 353.857819,134.714935 
	C353.857819,131.292099 353.857819,128.152832 354.022491,124.146805 
	C353.967377,122.093414 353.912262,120.040024 353.969269,117.112282 
	C352.543945,116.742661 351.120789,116.061493 349.692932,116.051453 
	C334.805267,115.946724 319.916840,115.949768 305.000702,114.995644 
	C305.000702,106.078804 305.000702,97.161972 305.000702,87.867279 
	C318.271423,87.867279 330.993896,87.867279 343.738220,87.867279 
	C343.738220,82.412437 343.738220,77.349655 343.738220,71.895493 
	C330.433319,71.895493 317.382721,71.895493 304.048767,71.895493 
	C304.048767,62.717319 304.048767,53.934326 304.970367,45.009575 
	C320.946747,45.009575 336.923126,45.009575 352.998322,45.009575 
	C352.998322,39.353874 353.084808,34.390663 352.909485,29.436712 
	C352.881653,28.650414 351.674957,27.905840 350.087067,26.977207 
M284.031647,260.859436 
	C285.458130,261.240326 286.881744,261.938507 288.311523,261.951355 
	C298.788391,262.045380 309.271271,262.186584 319.742035,261.917023 
	C324.336975,261.798676 328.991211,261.109558 333.473541,260.060333 
	C344.458191,257.489105 351.858368,250.963684 353.855255,239.499008 
	C355.938446,227.538651 352.281921,217.881653 341.601685,211.369125 
	C340.853516,210.912918 340.248535,210.221863 339.432220,209.514572 
	C340.727448,208.404144 341.674194,207.463104 342.744873,206.694839 
	C352.057251,200.013016 352.546112,190.538620 350.308258,180.724075 
	C348.132782,171.183121 339.392151,163.803223 329.740051,163.052094 
	C320.852600,162.360474 311.906952,162.416992 302.059784,162.012680 
	C296.138733,162.012680 290.217712,162.012680 284.164398,162.012680 
	C284.164398,194.987381 284.164398,227.486267 284.031647,260.859436 
M25.894608,101.499634 
	C25.921282,106.330086 26.244549,111.182899 25.882492,115.984032 
	C25.583033,119.955070 27.033289,121.792534 30.660070,123.361877 
	C42.659435,128.554153 49.090141,137.618134 48.717941,151.075775 
	C48.343235,164.623810 42.667294,174.340637 29.330624,178.768951 
	C28.242817,179.130142 27.219328,179.685043 26.051451,180.200470 
	C26.051451,203.950317 25.708235,227.600143 26.183126,251.233551 
	C26.457926,264.909302 34.167328,273.299774 47.603802,276.315033 
	C50.822487,277.037292 54.199909,277.352814 57.503807,277.349457 
	C104.645927,277.301605 151.788284,277.236237 198.929794,277.009369 
	C212.539276,276.943878 222.332779,268.496429 224.732422,255.138428 
	C225.316147,251.889038 225.273972,248.502380 225.282272,245.178253 
	C225.386322,203.532303 225.492401,161.886261 225.500305,120.240219 
	C225.504730,96.926559 225.802002,73.597717 225.057922,50.304764 
	C224.598541,35.924061 216.564835,27.895878 202.405563,25.304888 
	C199.314240,24.739208 196.104736,24.624401 192.950119,24.628971 
	C146.307663,24.696533 99.665062,24.764505 53.023029,24.959934 
	C37.501419,25.024969 26.460146,35.444813 26.014746,51.036152 
	C25.544083,67.511848 25.895889,84.011040 25.894608,101.499634 
M765.039429,201.518082 
	C765.039429,197.749924 765.039429,193.981766 765.039429,190.305161 
	C759.309265,190.305161 754.225159,190.305161 748.562744,190.305161 
	C748.562744,193.066376 748.562744,195.534210 748.562744,197.670731 
	C746.182190,195.626160 744.235229,193.198288 741.707092,191.918106 
	C732.449158,187.230179 722.751221,186.567596 713.449219,191.437378 
	C698.391296,199.320557 692.079651,215.480377 695.243408,233.159470 
	C699.752563,258.356049 731.827209,268.499481 745.885071,251.175568 
	C745.985901,251.051315 746.455322,251.226135 747.022400,251.293243 
	C747.022400,252.408691 747.022339,253.542404 747.022400,254.676132 
	C747.023071,266.059021 741.848267,272.560699 730.634216,273.052490 
	C724.025757,273.342316 717.328674,271.308014 710.650696,270.488678 
	C708.434937,270.216827 705.174683,269.542328 704.097656,270.674469 
	C701.481323,273.424835 699.865906,277.127350 697.793274,280.534973 
	C711.732727,288.988434 725.952026,291.375244 741.074890,288.056335 
	C750.628906,285.959564 757.819275,280.543610 761.321411,271.321472 
	C763.237793,266.275116 764.895447,260.791107 765.020081,255.465881 
	C765.432983,237.823883 765.096619,220.164368 765.039429,201.518082 
M458.358063,130.202942 
	C474.212921,139.943481 490.408112,138.358810 506.451721,131.076218 
	C511.357666,128.849274 515.675781,125.163132 517.020081,118.927055 
	C514.898560,117.639023 512.764221,116.413994 510.702881,115.076431 
	C506.817322,112.555222 503.816620,112.215263 499.431458,115.516579 
	C483.840942,127.253754 464.712494,118.584389 462.416534,98.870682 
	C481.212402,98.870682 499.966614,98.870682 519.003784,98.870682 
	C519.003784,95.351555 519.004028,92.216316 519.003784,89.081085 
	C519.001831,64.524147 494.637238,46.582848 471.106140,53.810020 
	C455.886078,58.484608 445.467194,68.265884 442.282776,83.929405 
	C438.636597,101.864120 442.036346,118.096291 458.358063,130.202942 
M559.431152,254.045670 
	C566.603577,266.576202 577.530701,264.655884 589.224792,261.529785 
	C588.020630,259.976746 586.961243,258.535950 585.825745,257.157776 
	C577.041748,246.496445 568.261658,235.831711 559.435974,225.204956 
	C557.195251,222.506912 557.123535,220.444473 559.809753,217.676865 
	C566.879761,210.392487 573.573425,202.742340 580.401733,195.224014 
	C581.767761,193.719864 583.065857,192.154037 584.822449,190.122726 
	C580.125427,189.846634 576.452148,189.796280 572.821045,189.378693 
	C567.304321,188.744217 563.544861,190.827423 560.036560,195.219467 
	C553.687866,203.167465 546.615601,210.537521 539.845398,218.148880 
	C539.341675,217.995300 538.838013,217.841721 538.334290,217.688126 
	C538.334290,199.167038 538.334290,180.645950 538.334290,162.345337 
	C531.921875,162.345337 526.516235,162.345337 521.330627,162.345337 
	C521.330627,195.742065 521.330627,228.797104 521.330627,261.740601 
	C527.088928,261.740601 532.517761,261.740601 538.114746,261.740601 
	C538.412598,255.995239 539.167236,250.482956 538.847534,245.033737 
	C538.535034,239.707809 540.570679,236.245972 545.449585,233.299576 
	C549.977112,240.030548 554.493835,246.745468 559.431152,254.045670 
M502.550232,199.978622 
	C490.996490,185.627960 469.050232,185.993225 458.326263,192.281281 
	C442.534424,201.540955 435.730835,220.958694 441.574310,239.213348 
	C446.945160,255.991608 460.623596,264.678680 479.916595,262.944366 
	C493.312347,261.740234 504.067505,255.620361 508.613953,242.436478 
	C513.654358,227.820053 513.575500,213.325027 502.550232,199.978622 
M369.261230,203.832993 
	C368.568390,204.968842 367.771515,206.054733 367.198517,207.248123 
	C360.394958,221.418472 360.957184,235.411652 369.390900,248.580490 
	C377.528687,261.287231 390.284851,264.563446 404.337189,262.868439 
	C424.707977,260.411377 438.331604,240.780457 433.137970,215.736816 
	C430.258636,201.852600 420.902313,191.997513 406.451721,189.050705 
	C391.477722,185.997147 378.838013,190.460236 369.261230,203.832993 
M594.001587,209.500427 
	C594.001587,226.920258 594.001587,244.340103 594.001587,261.707794 
	C599.974121,261.707794 605.374390,261.707794 610.715332,261.707794 
	C610.715332,237.692001 610.715332,213.967865 610.715332,190.292145 
	C605.027344,190.292145 599.626709,190.292145 594.001587,190.292145 
	C594.001587,196.554138 594.001587,202.527390 594.001587,209.500427 
M593.901733,164.512192 
	C593.342651,165.705917 592.578308,166.847916 592.261963,168.102844 
	C591.212585,172.266434 594.185730,178.282364 597.910767,179.813522 
	C602.632812,181.754471 609.091736,179.752243 611.419556,175.625809 
	C614.187073,170.720078 613.331543,166.586609 608.792603,162.934036 
	C604.723083,159.659210 599.178162,160.015808 593.901733,164.512192 
z"/>
<path fill="#FF6A01" opacity="1.000000" stroke="none" 
	d="
M25.891514,100.999802 
	C25.895889,84.011040 25.544083,67.511848 26.014746,51.036152 
	C26.460146,35.444813 37.501419,25.024969 53.023029,24.959934 
	C99.665062,24.764505 146.307663,24.696533 192.950119,24.628971 
	C196.104736,24.624401 199.314240,24.739208 202.405563,25.304888 
	C216.564835,27.895878 224.598541,35.924061 225.057922,50.304764 
	C225.802002,73.597717 225.504730,96.926559 225.500305,120.240219 
	C225.492401,161.886261 225.386322,203.532303 225.282272,245.178253 
	C225.273972,248.502380 225.316147,251.889038 224.732422,255.138428 
	C222.332779,268.496429 212.539276,276.943878 198.929794,277.009369 
	C151.788284,277.236237 104.645927,277.301605 57.503807,277.349457 
	C54.199909,277.352814 50.822487,277.037292 47.603802,276.315033 
	C34.167328,273.299774 26.457926,264.909302 26.183126,251.233551 
	C25.708235,227.600143 26.051451,203.950317 26.051451,180.200470 
	C27.219328,179.685043 28.242817,179.130142 29.330624,178.768951 
	C42.667294,174.340637 48.343235,164.623810 48.717941,151.075775 
	C49.090141,137.618134 42.659435,128.554153 30.660070,123.361877 
	C27.033289,121.792534 25.583033,119.955070 25.882492,115.984032 
	C26.244549,111.182899 25.921282,106.330086 25.891514,100.999802 
M104.461525,222.504669 
	C113.287743,222.442596 122.113907,222.373230 130.940186,222.320084 
	C145.430252,222.232819 159.923660,222.317383 174.409409,222.022156 
	C185.318390,221.799820 192.812561,214.887665 194.325775,204.063522 
	C194.714874,201.280350 194.663803,198.421021 194.645599,195.597778 
	C194.479126,169.780853 194.363220,143.963089 194.047546,118.147850 
	C193.872925,103.868576 185.928558,96.382118 171.881927,96.745979 
	C168.972076,96.821358 166.058609,96.756920 162.983795,96.756920 
	C162.983795,92.202332 163.295059,88.178925 162.902176,84.225479 
	C162.447830,79.653427 158.763351,79.644844 155.316879,79.893379 
	C152.130203,80.123192 150.809265,81.739410 150.916092,85.170647 
	C151.036819,89.048691 150.358841,92.951607 150.046341,96.630112 
	C133.279861,96.630112 117.221939,96.630112 101.004089,96.630112 
	C101.004089,94.274269 101.004333,92.283661 101.004028,90.293053 
	C101.003723,88.294243 101.351501,86.210648 100.892471,84.323341 
	C100.522255,82.801208 99.484215,80.783890 98.212738,80.251602 
	C92.490173,77.855888 88.183022,80.753326 87.885040,86.958641 
	C87.728592,90.216774 87.857422,93.488609 87.857422,96.921455 
	C85.032242,96.921455 82.719803,96.921066 80.407372,96.921516 
	C65.348076,96.924469 57.217865,105.040314 57.314419,120.051933 
	C57.490112,147.367920 57.653366,174.684113 57.917450,201.999313 
	C58.027546,213.386673 65.099983,221.274536 76.515945,222.068741 
	C85.468079,222.691528 94.484276,222.393311 104.461525,222.504669 
z"/>
<path fill="#151515" opacity="1.000000" stroke="none" 
	d="
M302.986938,162.143951 
	C311.906952,162.416992 320.852600,162.360474 329.740051,163.052094 
	C339.392151,163.803223 348.132782,171.183121 350.308258,180.724075 
	C352.546112,190.538620 352.057251,200.013016 342.744873,206.694839 
	C341.674194,207.463104 340.727448,208.404144 339.432220,209.514572 
	C340.248535,210.221863 340.853516,210.912918 341.601685,211.369125 
	C352.281921,217.881653 355.938446,227.538651 353.855255,239.499008 
	C351.858368,250.963684 344.458191,257.489105 333.473541,260.060333 
	C328.991211,261.109558 324.336975,261.798676 319.742035,261.917023 
	C309.271271,262.186584 298.788391,262.045380 288.311523,261.951355 
	C286.881744,261.938507 285.458130,261.240326 284.483521,260.322632 
	C285.291077,257.928101 285.951843,256.071136 285.956512,254.212555 
	C286.023743,227.609802 286.002441,201.006821 286.002441,174.403885 
	C286.002441,164.031906 286.004578,164.132492 296.511444,163.908813 
	C298.681488,163.862625 300.829041,162.759796 302.986938,162.143951 
M317.402283,246.034943 
	C318.568542,246.034531 319.735168,246.054184 320.900970,246.030487 
	C329.464417,245.856400 335.793701,240.573425 336.117157,233.339706 
	C336.515442,224.432556 332.034149,218.979492 322.590179,218.184250 
	C315.538361,217.590469 308.396423,218.067154 301.264069,218.067154 
	C301.264069,227.581116 301.264069,236.649109 301.264069,246.034943 
	C306.491425,246.034943 311.460724,246.034943 317.402283,246.034943 
M333.069183,191.346756 
	C332.786224,182.759720 329.855469,178.631989 322.645508,178.157028 
	C315.565491,177.690628 308.430786,178.055359 301.209900,178.055359 
	C301.209900,186.834793 301.209900,195.237778 301.209900,204.034592 
	C307.405273,204.034592 313.364319,204.058762 319.323059,204.028809 
	C327.817963,203.986115 331.438629,200.843842 333.069183,191.346756 
z"/>
<path fill="#161617" opacity="1.000000" stroke="none" 
	d="
M765.043579,202.014832 
	C765.096619,220.164368 765.432983,237.823883 765.020081,255.465881 
	C764.895447,260.791107 763.237793,266.275116 761.321411,271.321472 
	C757.819275,280.543610 750.628906,285.959564 741.074890,288.056335 
	C725.952026,291.375244 711.732727,288.988434 697.793274,280.534973 
	C699.865906,277.127350 701.481323,273.424835 704.097656,270.674469 
	C705.174683,269.542328 708.434937,270.216827 710.650696,270.488678 
	C717.328674,271.308014 724.025757,273.342316 730.634216,273.052490 
	C741.848267,272.560699 747.023071,266.059021 747.022400,254.676132 
	C747.022339,253.542404 747.022400,252.408691 747.022400,251.293243 
	C746.455322,251.226135 745.985901,251.051315 745.885071,251.175568 
	C731.827209,268.499481 699.752563,258.356049 695.243408,233.159470 
	C692.079651,215.480377 698.391296,199.320557 713.449219,191.437378 
	C722.751221,186.567596 732.449158,187.230179 741.707092,191.918106 
	C744.235229,193.198288 746.182190,195.626160 748.562744,197.670731 
	C748.562744,195.534210 748.562744,193.066376 748.562744,190.305161 
	C754.225159,190.305161 759.309265,190.305161 765.039429,190.305161 
	C765.039429,193.981766 765.039429,197.749924 765.043579,202.014832 
M717.721008,208.185028 
	C710.533752,217.224319 709.744568,227.622894 715.644226,236.795059 
	C719.867981,243.361755 726.236389,246.047806 733.628296,244.834106 
	C740.423523,243.718338 745.213806,239.347000 747.359436,232.556320 
	C750.626343,222.217194 747.622620,211.957016 739.692200,206.195999 
	C734.302490,202.280731 725.371521,202.923691 717.721008,208.185028 
z"/>
<path fill="#151516" opacity="1.000000" stroke="none" 
	d="
M285.986755,27.141979 
	C307.353516,27.087055 328.720306,27.032131 350.542358,27.518013 
	C350.998352,31.378145 350.765167,34.718437 351.060303,38.011368 
	C351.411499,41.929501 350.049622,43.167595 346.059845,43.089149 
	C333.617188,42.844517 321.165649,42.923378 308.720520,43.093887 
	C307.154144,43.115345 305.605591,44.433800 304.048767,45.151329 
	C304.048767,53.934326 304.048767,62.717319 304.048767,71.895493 
	C317.382721,71.895493 330.433319,71.895493 343.738220,71.895493 
	C343.738220,77.349655 343.738220,82.412437 343.738220,87.867279 
	C330.993896,87.867279 318.271423,87.867279 305.000702,87.867279 
	C305.000702,97.161972 305.000702,106.078804 304.916016,115.789001 
	C306.093964,117.055000 307.354126,117.931175 308.619568,117.938797 
	C323.698303,118.029610 338.777802,117.991188 353.857117,117.986633 
	C353.912262,120.040024 353.967377,122.093414 353.562561,124.671257 
	C352.494263,127.642181 351.885864,130.088638 351.219147,132.769592 
	C349.740723,132.846680 348.273407,132.988556 346.805939,132.989761 
	C328.338898,133.004898 309.869690,132.846405 291.406403,133.109314 
	C286.884033,133.173721 285.884186,131.763809 285.905609,127.462257 
	C286.072144,94.022865 285.991180,60.582230 285.986755,27.141979 
z"/>
<path fill="#161616" opacity="1.000000" stroke="none" 
	d="
M458.042725,130.028000 
	C442.036346,118.096291 438.636597,101.864120 442.282776,83.929405 
	C445.467194,68.265884 455.886078,58.484608 471.106140,53.810020 
	C494.637238,46.582848 519.001831,64.524147 519.003784,89.081085 
	C519.004028,92.216316 519.003784,95.351555 519.003784,98.870682 
	C499.966614,98.870682 481.212402,98.870682 462.416534,98.870682 
	C464.712494,118.584389 483.840942,127.253754 499.431458,115.516579 
	C503.816620,112.215263 506.817322,112.555222 510.702881,115.076431 
	C512.764221,116.413994 514.898560,117.639023 517.020081,118.927055 
	C515.675781,125.163132 511.357666,128.849274 506.451721,131.076218 
	C490.408112,138.358810 474.212921,139.943481 458.042725,130.028000 
M496.482819,76.273964 
	C491.090332,69.402504 483.086182,67.091515 474.170410,69.831833 
	C467.110229,72.001831 463.074310,77.506271 462.489777,85.780685 
	C474.594116,85.780685 486.695770,85.780685 499.330780,85.780685 
	C498.455902,82.602531 497.673492,79.760284 496.482819,76.273964 
z"/>
<path fill="#141415" opacity="1.000000" stroke="none" 
	d="
M584.920715,90.028717 
	C583.982971,86.015495 583.281006,81.928413 582.052551,78.006241 
	C580.182495,72.035736 575.232361,70.997688 569.752136,70.783310 
	C563.930298,70.555557 558.250793,71.175621 555.972900,77.296310 
	C554.097046,82.337135 552.766296,87.849747 552.586060,93.200165 
	C552.122131,106.967934 552.430908,120.761742 552.430908,134.770920 
	C545.592102,134.770920 539.524963,134.770920 533.226501,134.770920 
	C533.226501,107.931068 533.226501,81.210396 533.226501,54.253265 
	C539.072205,54.253265 544.828613,54.253265 550.984070,54.253265 
	C551.394592,57.641335 551.807922,61.052387 552.250305,64.702904 
	C555.021667,62.253933 557.613647,59.595612 560.562439,57.421104 
	C573.673035,47.752888 599.607361,52.478600 604.085022,74.851135 
	C604.313110,75.991005 604.634766,77.112167 604.482178,78.730415 
	C603.700134,80.913246 603.056152,82.605667 603.044312,84.302467 
	C602.957703,96.773048 602.997498,109.244499 602.997498,121.715683 
	C602.997498,133.287216 602.998230,133.138428 591.366516,133.084198 
	C587.738342,133.067276 586.893921,131.755997 586.941956,128.416916 
	C587.102295,117.278297 587.002625,106.135941 587.002502,94.995018 
	C587.002441,92.658943 587.002441,90.322868 587.002441,87.278389 
	C585.896729,88.739189 585.408752,89.383957 584.920715,90.028717 
z"/>
<path fill="#111112" opacity="1.000000" stroke="none" 
	d="
M559.220825,253.753036 
	C554.493835,246.745468 549.977112,240.030548 545.449585,233.299576 
	C540.570679,236.245972 538.535034,239.707809 538.847534,245.033737 
	C539.167236,250.482956 538.412598,255.995239 538.114746,261.740601 
	C532.517761,261.740601 527.088928,261.740601 521.330627,261.740601 
	C521.330627,228.797104 521.330627,195.742065 521.330627,162.345337 
	C526.516235,162.345337 531.921875,162.345337 538.334290,162.345337 
	C538.334290,180.645950 538.334290,199.167038 538.334290,217.688126 
	C538.838013,217.841721 539.341675,217.995300 539.845398,218.148880 
	C546.615601,210.537521 553.687866,203.167465 560.036560,195.219467 
	C563.544861,190.827423 567.304321,188.744217 572.821045,189.378693 
	C576.452148,189.796280 580.125427,189.846634 584.822449,190.122726 
	C583.065857,192.154037 581.767761,193.719864 580.401733,195.224014 
	C573.573425,202.742340 566.879761,210.392487 559.809753,217.676865 
	C557.123535,220.444473 557.195251,222.506912 559.435974,225.204956 
	C568.261658,235.831711 577.041748,246.496445 585.825745,257.157776 
	C586.961243,258.535950 588.020630,259.976746 589.224792,261.529785 
	C577.530701,264.655884 566.603577,266.576202 559.220825,253.753036 
z"/>
<path fill="#171717" opacity="1.000000" stroke="none" 
	d="
M439.470642,58.086411 
	C430.750366,82.197800 422.030090,106.309189 412.681671,130.723099 
	C403.309509,131.161377 394.163239,136.471039 386.010559,129.000885 
	C377.880615,107.434647 369.731720,85.875534 361.641541,64.294388 
	C360.449158,61.113678 359.535156,57.828629 358.358734,54.177063 
	C366.062378,54.177063 372.858398,54.177063 380.444427,54.177063 
	C386.769440,72.694061 393.185242,91.476837 400.013031,111.465775 
	C406.169952,93.867027 411.976807,77.268944 418.349548,60.332165 
	C421.172638,59.325520 423.403351,58.220974 425.692749,58.081730 
	C430.268372,57.803432 434.876129,58.054146 439.470642,58.086411 
z"/>
<path fill="#171717" opacity="1.000000" stroke="none" 
	d="
M502.781067,200.249985 
	C513.575500,213.325027 513.654358,227.820053 508.613953,242.436478 
	C504.067505,255.620361 493.312347,261.740234 479.916595,262.944366 
	C460.623596,264.678680 446.945160,255.991608 441.574310,239.213348 
	C435.730835,220.958694 442.534424,201.540955 458.326263,192.281281 
	C469.050232,185.993225 490.996490,185.627960 502.781067,200.249985 
M474.780731,248.011810 
	C482.811584,248.848358 488.726440,244.783646 491.712921,238.184433 
	C496.003052,228.704605 496.042389,218.803986 489.307434,209.904358 
	C484.178986,203.127625 472.786255,201.023727 466.105530,206.296967 
	C458.310089,212.450104 455.629395,221.070953 457.184723,230.782120 
	C458.770782,240.685089 463.990479,245.812393 474.780731,248.011810 
z"/>
<path fill="#161616" opacity="1.000000" stroke="none" 
	d="
M369.486694,203.548172 
	C378.838013,190.460236 391.477722,185.997147 406.451721,189.050705 
	C420.902313,191.997513 430.258636,201.852600 433.137970,215.736816 
	C438.331604,240.780457 424.707977,260.411377 404.337189,262.868439 
	C390.284851,264.563446 377.528687,261.287231 369.390900,248.580490 
	C360.957184,235.411652 360.394958,221.418472 367.198517,207.248123 
	C367.771515,206.054733 368.568390,204.968842 369.486694,203.548172 
M389.139404,206.400314 
	C383.230438,210.670303 380.052429,216.586105 379.753296,223.727478 
	C379.415192,231.799835 381.141602,239.548996 388.105286,244.568008 
	C398.533081,252.083755 413.663147,248.070572 416.623230,230.611893 
	C418.209015,221.259033 416.052063,213.087631 408.477112,206.909882 
	C402.541412,202.068970 396.186859,203.127380 389.139404,206.400314 
z"/>
<path fill="#161617" opacity="1.000000" stroke="none" 
	d="
M640.829590,197.054977 
	C642.002686,196.350235 643.338135,195.821548 644.323547,194.913208 
	C653.152100,186.775406 663.331543,186.492538 673.634155,190.742508 
	C683.174927,194.678177 686.767517,203.215546 686.965393,212.919769 
	C687.294495,229.058182 687.055054,245.208191 687.055054,261.660278 
	C681.376648,261.660278 675.975403,261.660278 669.861084,261.660278 
	C669.861084,255.169724 669.973633,248.567932 669.832886,241.971542 
	C669.651794,233.482590 669.666626,224.959503 668.853760,216.522736 
	C668.106323,208.765274 664.101318,204.626389 658.204224,203.907043 
	C650.708496,202.992722 645.850830,205.720749 641.997070,212.871338 
	C640.546753,214.722580 639.135376,216.318619 639.097473,217.946564 
	C638.881226,227.250778 638.948853,236.562988 639.038391,245.871353 
	C639.051697,247.256210 639.691956,248.635025 640.042114,250.016647 
	C640.050354,253.048782 640.058594,256.080902 639.517944,259.552795 
	C634.024109,259.997589 629.079224,260.002625 624.134338,260.007660 
	C624.082336,237.644821 624.030334,215.281982 624.513672,192.463043 
	C626.864990,192.007492 628.681030,192.008301 630.497009,192.008499 
	C637.555481,192.009262 637.550781,192.009583 638.129822,198.815872 
	C638.142578,198.966232 638.616272,199.077393 638.996094,199.267441 
	C639.601074,198.537415 640.215332,197.796188 640.829590,197.054977 
z"/>
<path fill="#151515" opacity="1.000000" stroke="none" 
	d="
M648.858276,36.977562 
	C648.918213,42.295429 648.978149,47.613300 649.099365,53.800602 
	C650.615112,55.113914 652.060242,55.900536 653.525635,55.940491 
	C658.966248,56.088840 664.413574,55.991371 669.858337,55.986221 
	C669.913391,60.359871 669.968445,64.733521 669.752808,69.650208 
	C669.247253,70.358551 669.093933,70.580238 669.022156,70.858299 
	C662.560669,70.858299 656.099121,70.858299 649.532410,70.858299 
	C649.532410,81.804405 649.532410,92.372154 649.104492,103.617706 
	C648.435486,106.377129 645.912720,109.077187 650.203796,109.930420 
	C653.017578,120.948608 661.990784,117.573730 669.647217,118.088089 
	C669.647217,123.487320 669.647217,128.896912 669.647217,135.110672 
	C658.770020,136.327301 647.469421,138.552948 637.301819,131.771408 
	C631.123596,127.650696 629.853516,120.541946 629.796875,113.562019 
	C629.684692,99.733383 629.885681,85.902199 629.899231,71.204010 
	C627.719177,69.890106 625.522034,68.853355 623.489502,69.111725 
	C617.899780,69.822273 617.787231,66.678322 617.930176,62.581043 
	C618.061829,58.807590 617.393799,55.177174 623.325989,55.841125 
	C625.410156,56.074383 628.809753,57.874844 629.951172,53.847748 
	C629.959534,48.531052 629.967957,43.214359 630.247192,37.352211 
	C630.752747,36.641441 630.906067,36.419754 630.977844,36.141701 
	C636.352356,36.086586 641.726868,36.031471 647.647339,36.247116 
	C648.358521,36.752705 648.580200,36.905933 648.858276,36.977562 
z"/>
<path fill="#151415" opacity="1.000000" stroke="none" 
	d="
M594.001587,209.000534 
	C594.001587,202.527390 594.001587,196.554138 594.001587,190.292145 
	C599.626709,190.292145 605.027344,190.292145 610.715332,190.292145 
	C610.715332,213.967865 610.715332,237.692001 610.715332,261.707794 
	C605.374390,261.707794 599.974121,261.707794 594.001587,261.707794 
	C594.001587,244.340103 594.001587,226.920258 594.001587,209.000534 
z"/>
<path fill="#020202" opacity="1.000000" stroke="none" 
	d="
M285.549500,27.085907 
	C285.991180,60.582230 286.072144,94.022865 285.905609,127.462257 
	C285.884186,131.763809 286.884033,133.173721 291.406403,133.109314 
	C309.869690,132.846405 328.338898,133.004898 346.805939,132.989761 
	C348.273407,132.988556 349.740723,132.846680 351.219147,132.769592 
	C351.885864,130.088638 352.494263,127.642181 353.480225,125.104645 
	C353.857819,128.152832 353.857819,131.292099 353.857819,134.714935 
	C330.767822,134.714935 307.719849,134.714935 284.285736,134.714935 
	C284.200958,133.648468 284.014313,132.391632 284.013702,131.134705 
	C283.997772,97.867119 283.987213,64.599510 284.048065,31.332033 
	C284.050690,29.897326 284.741821,28.463875 285.549500,27.085907 
z"/>
<path fill="#181819" opacity="1.000000" stroke="none" 
	d="
M594.121277,164.187805 
	C599.178162,160.015808 604.723083,159.659210 608.792603,162.934036 
	C613.331543,166.586609 614.187073,170.720078 611.419556,175.625809 
	C609.091736,179.752243 602.632812,181.754471 597.910767,179.813522 
	C594.185730,178.282364 591.212585,172.266434 592.261963,168.102844 
	C592.578308,166.847916 593.342651,165.705917 594.121277,164.187805 
z"/>
<path fill="#050505" opacity="1.000000" stroke="none" 
	d="
M584.824829,90.487106 
	C585.408752,89.383957 585.896729,88.739189 587.002441,87.278389 
	C587.002441,90.322868 587.002441,92.658943 587.002502,94.995018 
	C587.002625,106.135941 587.102295,117.278297 586.941956,128.416916 
	C586.893921,131.755997 587.738342,133.067276 591.366516,133.084198 
	C602.998230,133.138428 602.997498,133.287216 602.997498,121.715683 
	C602.997498,109.244499 602.957703,96.773048 603.044312,84.302467 
	C603.056152,82.605667 603.700134,80.913246 604.434937,79.116074 
	C604.818481,97.432442 604.818481,115.851540 604.818481,134.635101 
	C598.436157,134.635101 591.930725,134.635101 584.728943,134.635101 
	C584.728943,120.065948 584.728943,105.505722 584.824829,90.487106 
z"/>
<path fill="#020203" opacity="1.000000" stroke="none" 
	d="
M302.523376,162.078323 
	C300.829041,162.759796 298.681488,163.862625 296.511444,163.908813 
	C286.004578,164.132492 286.002441,164.031906 286.002441,174.403885 
	C286.002441,201.006821 286.023743,227.609802 285.956512,254.212555 
	C285.951843,256.071136 285.291077,257.928101 284.549896,259.885498 
	C284.164398,227.486267 284.164398,194.987381 284.164398,162.012680 
	C290.217712,162.012680 296.138733,162.012680 302.523376,162.078323 
z"/>
<path fill="#020202" opacity="1.000000" stroke="none" 
	d="
M304.509583,45.080452 
	C305.605591,44.433800 307.154144,43.115345 308.720520,43.093887 
	C321.165649,42.923378 333.617188,42.844517 346.059845,43.089149 
	C350.049622,43.167595 351.411499,41.929501 351.060303,38.011368 
	C350.765167,34.718437 350.998352,31.378145 351.005463,27.600399 
	C351.674957,27.905840 352.881653,28.650414 352.909485,29.436712 
	C353.084808,34.390663 352.998322,39.353874 352.998322,45.009575 
	C336.923126,45.009575 320.946747,45.009575 304.509583,45.080452 
z"/>
<path fill="#020202" opacity="1.000000" stroke="none" 
	d="
M353.913208,117.549454 
	C338.777802,117.991188 323.698303,118.029610 308.619568,117.938797 
	C307.354126,117.931175 306.093964,117.055000 304.929993,116.252647 
	C319.916840,115.949768 334.805267,115.946724 349.692932,116.051453 
	C351.120789,116.061493 352.543945,116.742661 353.913208,117.549454 
z"/>
<path fill="#313131" opacity="1.000000" stroke="none" 
	d="
M439.695282,57.806358 
	C434.876129,58.054146 430.268372,57.803432 425.692749,58.081730 
	C423.403351,58.220974 421.172638,59.325520 418.523041,60.006721 
	C418.100586,55.157524 420.510956,53.539391 425.274933,53.907021 
	C430.352203,54.298824 435.483124,53.995216 440.933319,53.995216 
	C440.524597,55.419403 440.222260,56.472858 439.695282,57.806358 
z"/>
<path fill="#010101" opacity="1.000000" stroke="none" 
	d="
M629.492798,53.919186 
	C628.809753,57.874844 625.410156,56.074383 623.325989,55.841125 
	C617.393799,55.177174 618.061829,58.807590 617.930176,62.581043 
	C617.787231,66.678322 617.899780,69.822273 623.489502,69.111725 
	C625.522034,68.853355 627.719177,69.890106 629.896057,70.745033 
	C625.481689,71.154121 621.012512,71.154121 616.274780,71.154121 
	C616.274780,65.360573 616.274780,59.956543 616.274780,53.990623 
	C620.496704,53.990623 624.765564,53.990623 629.492798,53.919186 
z"/>
<path fill="#090909" opacity="1.000000" stroke="none" 
	d="
M385.999329,129.395660 
	C394.163239,136.471039 403.309509,131.161377 412.467255,131.016937 
	C412.556030,133.965240 411.075684,135.243271 407.946777,135.100449 
	C402.975464,134.873520 397.960693,134.702591 393.013672,135.108978 
	C388.732422,135.460678 386.450531,134.053238 385.999329,129.395660 
z"/>
<path fill="#0B0B0B" opacity="1.000000" stroke="none" 
	d="
M640.152893,249.625824 
	C639.691956,248.635025 639.051697,247.256210 639.038391,245.871353 
	C638.948853,236.562988 638.881226,227.250778 639.097473,217.946564 
	C639.135376,216.318619 640.546753,214.722580 641.726379,213.076813 
	C641.507202,225.106201 640.885437,237.170609 640.152893,249.625824 
z"/>
<path fill="#0B0B0B" opacity="1.000000" stroke="none" 
	d="
M640.825439,196.638184 
	C640.215332,197.796188 639.601074,198.537415 638.996094,199.267441 
	C638.616272,199.077393 638.142578,198.966232 638.129822,198.815872 
	C637.550781,192.009583 637.555481,192.009262 630.497009,192.008499 
	C628.681030,192.008301 626.864990,192.007492 624.591675,191.999664 
	C624.732727,191.325165 625.311462,190.101440 625.932617,190.079514 
	C630.562195,189.916061 635.200134,189.990723 639.843384,189.990723 
	C640.203430,192.284973 640.512329,194.253174 640.825439,196.638184 
z"/>
<path fill="#010101" opacity="1.000000" stroke="none" 
	d="
M669.914185,55.548977 
	C664.413574,55.991371 658.966248,56.088840 653.525635,55.940491 
	C652.060242,55.900536 650.615112,55.113914 649.104614,54.258690 
	C654.777527,53.898743 660.508240,53.887608 666.234070,54.050476 
	C667.488464,54.086155 668.725159,54.741669 669.914185,55.548977 
z"/>
<path fill="#0B0B0B" opacity="1.000000" stroke="none" 
	d="
M624.076172,260.445374 
	C629.079224,260.002625 634.024109,259.997589 639.428223,259.999634 
	C639.869690,260.490356 639.841431,261.398193 639.835754,261.398071 
	C634.562195,261.266693 629.290039,261.074677 624.076172,260.445374 
z"/>
<path fill="#010101" opacity="1.000000" stroke="none" 
	d="
M650.213501,109.609306 
	C645.912720,109.077187 648.435486,106.377129 648.997070,104.065559 
	C649.619446,105.653137 649.921326,107.470665 650.213501,109.609306 
z"/>
<path fill="#010101" opacity="1.000000" stroke="none" 
	d="
M648.894409,36.713898 
	C648.580200,36.905933 648.358521,36.752705 648.110229,36.329788 
	C648.328308,36.244545 648.629395,36.347389 648.894409,36.713898 
z"/>
<path fill="#010101" opacity="1.000000" stroke="none" 
	d="
M630.714172,36.105598 
	C630.906067,36.419754 630.752747,36.641441 630.329834,36.889645 
	C630.244568,36.671516 630.347534,36.370506 630.714172,36.105598 
z"/>
<path fill="#010101" opacity="1.000000" stroke="none" 
	d="
M669.285828,70.894394 
	C669.093933,70.580238 669.247253,70.358551 669.670166,70.110352 
	C669.755371,70.328476 669.652466,70.629486 669.285828,70.894394 
z"/>
<path fill="#FFFFFF" opacity="1.000000" stroke="none" 
	d="
M103.966766,222.504471 
	C94.484276,222.393311 85.468079,222.691528 76.515945,222.068741 
	C65.099983,221.274536 58.027546,213.386673 57.917450,201.999313 
	C57.653366,174.684113 57.490112,147.367920 57.314419,120.051933 
	C57.217865,105.040314 65.348076,96.924469 80.407372,96.921516 
	C82.719803,96.921066 85.032242,96.921455 87.857422,96.921455 
	C87.857422,93.488609 87.728592,90.216774 87.885040,86.958641 
	C88.183022,80.753326 92.490173,77.855888 98.212738,80.251602 
	C99.484215,80.783890 100.522255,82.801208 100.892471,84.323341 
	C101.351501,86.210648 101.003723,88.294243 101.004028,90.293053 
	C101.004333,92.283661 101.004089,94.274269 101.004089,96.630112 
	C117.221939,96.630112 133.279861,96.630112 150.046341,96.630112 
	C150.358841,92.951607 151.036819,89.048691 150.916092,85.170647 
	C150.809265,81.739410 152.130203,80.123192 155.316879,79.893379 
	C158.763351,79.644844 162.447830,79.653427 162.902176,84.225479 
	C163.295059,88.178925 162.983795,92.202332 162.983795,96.756920 
	C166.058609,96.756920 168.972076,96.821358 171.881927,96.745979 
	C185.928558,96.382118 193.872925,103.868576 194.047546,118.147850 
	C194.363220,143.963089 194.479126,169.780853 194.645599,195.597778 
	C194.663803,198.421021 194.714874,201.280350 194.325775,204.063522 
	C192.812561,214.887665 185.318390,221.799820 174.409409,222.022156 
	C159.923660,222.317383 145.430252,222.232819 130.940186,222.320084 
	C122.113907,222.373230 113.287743,222.442596 103.966766,222.504471 
M83.628830,210.415390 
	C112.755287,210.300446 141.881851,210.206375 171.008133,210.057083 
	C179.117996,210.015503 182.388290,206.691910 182.359818,198.417572 
	C182.294495,179.442902 182.125259,160.468567 181.976013,141.494278 
	C181.969955,140.724136 181.737976,139.955765 181.636063,139.337051 
	C144.293747,139.337051 107.269028,139.337051 69.945633,139.337051 
	C69.945633,158.789398 69.939812,177.912476 69.947952,197.035568 
	C69.952393,207.472351 72.244804,209.871170 83.628830,210.415390 
M78.549637,126.995667 
	C112.931664,126.995667 147.313690,126.995667 181.596268,126.995667 
	C184.406326,110.097771 177.485870,106.982132 163.230026,109.545647 
	C161.630539,113.198364 162.539505,118.505135 155.879807,118.326927 
	C149.180267,118.147667 151.467941,112.481796 149.542435,109.174698 
	C133.539322,109.174698 117.438789,109.174698 101.165237,109.174698 
	C100.496193,113.329048 100.361557,117.734650 94.552147,117.979523 
	C88.058174,118.253265 89.958069,112.137405 87.626350,109.264038 
	C71.683968,107.842140 67.576820,112.066597 70.701782,126.995667 
	C72.952095,126.995667 75.260422,126.995667 78.549637,126.995667 
z"/>
<path fill="#FFFFFF" opacity="1.000000" stroke="none" 
	d="
M316.916138,246.034943 
	C311.460724,246.034943 306.491425,246.034943 301.264069,246.034943 
	C301.264069,236.649109 301.264069,227.581116 301.264069,218.067154 
	C308.396423,218.067154 315.538361,217.590469 322.590179,218.184250 
	C332.034149,218.979492 336.515442,224.432556 336.117157,233.339706 
	C335.793701,240.573425 329.464417,245.856400 320.900970,246.030487 
	C319.735168,246.054184 318.568542,246.034531 316.916138,246.034943 
z"/>
<path fill="#FFFFFF" opacity="1.000000" stroke="none" 
	d="
M333.057190,191.768433 
	C331.438629,200.843842 327.817963,203.986115 319.323059,204.028809 
	C313.364319,204.058762 307.405273,204.034592 301.209900,204.034592 
	C301.209900,195.237778 301.209900,186.834793 301.209900,178.055359 
	C308.430786,178.055359 315.565491,177.690628 322.645508,178.157028 
	C329.855469,178.631989 332.786224,182.759720 333.057190,191.768433 
z"/>
<path fill="#FFFFFF" opacity="1.000000" stroke="none" 
	d="
M718.016968,207.960114 
	C725.371521,202.923691 734.302490,202.280731 739.692200,206.195999 
	C747.622620,211.957016 750.626343,222.217194 747.359436,232.556320 
	C745.213806,239.347000 740.423523,243.718338 733.628296,244.834106 
	C726.236389,246.047806 719.867981,243.361755 715.644226,236.795059 
	C709.744568,227.622894 710.533752,217.224319 718.016968,207.960114 
z"/>
<path fill="#FFFFFF" opacity="1.000000" stroke="none" 
	d="
M496.686951,76.595993 
	C497.673492,79.760284 498.455902,82.602531 499.330780,85.780685 
	C486.695770,85.780685 474.594116,85.780685 462.489777,85.780685 
	C463.074310,77.506271 467.110229,72.001831 474.170410,69.831833 
	C483.086182,67.091515 491.090332,69.402504 496.686951,76.595993 
z"/>
<path fill="#FFFFFF" opacity="1.000000" stroke="none" 
	d="
M474.355774,247.987747 
	C463.990479,245.812393 458.770782,240.685089 457.184723,230.782120 
	C455.629395,221.070953 458.310089,212.450104 466.105530,206.296967 
	C472.786255,201.023727 484.178986,203.127625 489.307434,209.904358 
	C496.042389,218.803986 496.003052,228.704605 491.712921,238.184433 
	C488.726440,244.783646 482.811584,248.848358 474.355774,247.987747 
z"/>
<path fill="#FFFFFF" opacity="1.000000" stroke="none" 
	d="
M389.475586,206.211533 
	C396.186859,203.127380 402.541412,202.068970 408.477112,206.909882 
	C416.052063,213.087631 418.209015,221.259033 416.623230,230.611893 
	C413.663147,248.070572 398.533081,252.083755 388.105286,244.568008 
	C381.141602,239.548996 379.415192,231.799835 379.753296,223.727478 
	C380.052429,216.586105 383.230438,210.670303 389.475586,206.211533 
z"/>
<path fill="#FF6900" opacity="1.000000" stroke="none" 
	d="
M83.151924,210.416779 
	C72.244804,209.871170 69.952393,207.472351 69.947952,197.035568 
	C69.939812,177.912476 69.945633,158.789398 69.945633,139.337051 
	C107.269028,139.337051 144.293747,139.337051 181.636063,139.337051 
	C181.737976,139.955765 181.969955,140.724136 181.976013,141.494278 
	C182.125259,160.468567 182.294495,179.442902 182.359818,198.417572 
	C182.388290,206.691910 179.117996,210.015503 171.008133,210.057083 
	C141.881851,210.206375 112.755287,210.300446 83.151924,210.416779 
M117.115013,152.779556 
	C117.115013,158.034622 117.115013,163.289688 117.115013,168.767944 
	C122.804489,168.767944 128.173447,168.767944 133.771393,168.767944 
	C133.771393,163.188217 133.771393,157.819244 133.771393,152.111908 
	C128.306427,152.111908 123.052849,152.111908 117.115013,152.779556 
M122.594528,181.000107 
	C120.835014,181.000107 119.075508,181.000107 117.289902,181.000107 
	C117.289902,186.947342 117.289902,192.315994 117.289902,197.707764 
	C122.952065,197.707764 128.320786,197.707764 133.705444,197.707764 
	C133.705444,192.043091 133.705444,186.674271 133.705444,181.000107 
	C130.132935,181.000107 126.847145,181.000107 122.594528,181.000107 
M88.000343,155.667755 
	C88.000343,160.059006 88.000343,164.450241 88.000343,168.634323 
	C93.769386,168.634323 98.808144,168.634323 103.632668,168.634323 
	C103.632668,162.889008 103.632668,157.515350 103.632668,152.001648 
	C99.134987,152.001648 94.991058,151.827301 90.881371,152.125244 
	C89.864479,152.198959 88.958702,153.805496 88.000343,155.667755 
M160.299545,197.998077 
	C161.197678,197.204376 162.828247,196.449478 162.872711,195.610550 
	C163.123688,190.874039 162.993942,186.117340 162.993942,181.261902 
	C157.444321,181.261902 152.408279,181.261902 147.263367,181.261902 
	C147.263367,186.894791 147.263367,192.262955 147.263367,197.999649 
	C151.456451,197.999649 155.396057,197.999649 160.299545,197.998077 
M152.587814,152.000107 
	C150.829132,152.000107 149.070450,152.000107 147.291122,152.000107 
	C147.291122,157.951202 147.291122,163.319565 147.291122,168.704834 
	C152.622787,168.704834 157.659409,168.704834 162.703278,168.704834 
	C162.703278,163.037506 162.703278,157.668991 162.703278,152.000107 
	C159.459763,152.000107 156.504761,152.000107 152.587814,152.000107 
M99.381058,197.999847 
	C100.815178,197.923203 102.249298,197.846542 103.718391,197.768021 
	C103.718391,192.065735 103.718391,186.697845 103.718391,181.285004 
	C98.396866,181.285004 93.360748,181.285004 88.285896,181.285004 
	C88.285896,186.942886 88.285896,192.310760 88.285896,197.999893 
	C91.849121,197.999893 95.130486,197.999893 99.381058,197.999847 
z"/>
<path fill="#FF6A01" opacity="1.000000" stroke="none" 
	d="
M78.059189,126.995667 
	C75.260422,126.995667 72.952095,126.995667 70.701782,126.995667 
	C67.576820,112.066597 71.683968,107.842140 87.625687,109.264572 
	C89.958069,112.137405 88.058174,118.253265 94.552147,117.979523 
	C100.361557,117.734650 100.496193,113.329048 101.165237,109.174698 
	C117.438789,109.174698 133.539322,109.174698 149.542435,109.174698 
	C151.467941,112.481796 149.180267,118.147667 155.879807,118.326927 
	C162.539505,118.505135 161.630539,113.198364 163.230026,109.545647 
	C177.485870,106.982132 184.406326,110.097771 181.596268,126.995667 
	C147.313690,126.995667 112.931664,126.995667 78.059189,126.995667 
z"/>
<path fill="#FFFFFF" opacity="1.000000" stroke="none" 
	d="
M117.457138,152.445740 
	C123.052849,152.111908 128.306427,152.111908 133.771393,152.111908 
	C133.771393,157.819244 133.771393,163.188217 133.771393,168.767944 
	C128.173447,168.767944 122.804489,168.767944 117.115013,168.767944 
	C117.115013,163.289688 117.115013,158.034622 117.457138,152.445740 
z"/>
<path fill="#FFFFFF" opacity="1.000000" stroke="none" 
	d="
M123.077942,181.000107 
	C126.847145,181.000107 130.132935,181.000107 133.705444,181.000107 
	C133.705444,186.674271 133.705444,192.043091 133.705444,197.707764 
	C128.320786,197.707764 122.952065,197.707764 117.289902,197.707764 
	C117.289902,192.315994 117.289902,186.947342 117.289902,181.000107 
	C119.075508,181.000107 120.835014,181.000107 123.077942,181.000107 
z"/>
<path fill="#FFFFFF" opacity="1.000000" stroke="none" 
	d="
M88.001099,155.187592 
	C88.958702,153.805496 89.864479,152.198959 90.881371,152.125244 
	C94.991058,151.827301 99.134987,152.001648 103.632668,152.001648 
	C103.632668,157.515350 103.632668,162.889008 103.632668,168.634323 
	C98.808144,168.634323 93.769386,168.634323 88.000343,168.634323 
	C88.000343,164.450241 88.000343,160.059006 88.001099,155.187592 
z"/>
<path fill="#FFFFFF" opacity="1.000000" stroke="none" 
	d="
M159.817612,197.998871 
	C155.396057,197.999649 151.456451,197.999649 147.263367,197.999649 
	C147.263367,192.262955 147.263367,186.894791 147.263367,181.261902 
	C152.408279,181.261902 157.444321,181.261902 162.993942,181.261902 
	C162.993942,186.117340 163.123688,190.874039 162.872711,195.610550 
	C162.828247,196.449478 161.197678,197.204376 159.817612,197.998871 
z"/>
<path fill="#FFFFFF" opacity="1.000000" stroke="none" 
	d="
M153.068787,152.000107 
	C156.504761,152.000107 159.459763,152.000107 162.703278,152.000107 
	C162.703278,157.668991 162.703278,163.037506 162.703278,168.704834 
	C157.659409,168.704834 152.622787,168.704834 147.291122,168.704834 
	C147.291122,163.319565 147.291122,157.951202 147.291122,152.000107 
	C149.070450,152.000107 150.829132,152.000107 153.068787,152.000107 
z"/>
<path fill="#FFFFFF" opacity="1.000000" stroke="none" 
	d="
M98.896454,197.999878 
	C95.130486,197.999893 91.849121,197.999893 88.285896,197.999893 
	C88.285896,192.310760 88.285896,186.942886 88.285896,181.285004 
	C93.360748,181.285004 98.396866,181.285004 103.718391,181.285004 
	C103.718391,186.697845 103.718391,192.065735 103.718391,197.768021 
	C102.249298,197.846542 100.815178,197.923203 98.896454,197.999878 
z"/>
</svg>